<?xml version="1.0" encoding="UTF-8"?>
<svg id="Layer_1" data-name="Layer 1" xmlns="http://www.w3.org/2000/svg" viewBox="0 0 256 256">
  <defs>
    <style>
      .cls-1 {
        fill: #fff;
        opacity: .8;
        stroke-width: 0px;
      }
    </style>
  </defs>
  <path class="cls-1" d="M72.1,146.09c-1.66.63-3.32,1.29-4.96,1.97,1.64-.68,3.29-1.34,4.96-1.97M214.61,183.27c-6.66-5.22-13.8-9.85-21.35-13.8-.96-.5-1.99.58-1.45,1.52l12.49,21.81c.56.98.3,2.24-.63,2.88-8.71,6.01-18.84,10.09-29.78,11.62-.99.14-1.95-.43-2.32-1.36l-19.16-47.15c-.21-.51-.97-.25-.83.28l12.26,46.19c-.95,1.24-1.16,1.5-2.11,2.74h-27.98c-1.15,0-2.1-.89-2.18-2.04l-3.36-50.29c-.02-.27-.42-.27-.44,0l-3.36,50.29c-.08,1.15-1.03,2.04-2.18,2.04h-27.98c-.87-1.14-1.24-1.61-2.11-2.74l12.26-46.19c.14-.53-.62-.78-.83-.28l-19.16,47.15c-.37.92-1.34,1.49-2.32,1.36-10.94-1.54-21.07-5.62-29.78-11.63-.93-.64-1.19-1.9-.63-2.88l12.47-21.8c.54-.94-.49-2.03-1.45-1.52-7.53,3.96-14.67,8.58-21.33,13.8-.92.72-2.25.61-3-.28-10.18-12.13-16.32-27.75-16.32-44.77,0-38.49,31.32-69.79,69.79-69.79h9.02c.84,0,1.36.91.95,1.63l-33.68,58.85-11.08,19.35c-1.06,1.85.9,3.96,2.82,3.04,2.34-1.12,4.73-2.17,7.14-3.17,4.23-1.76,8.55-3.36,12.96-4.76l.02-.04c-2.08.66-4.14,1.38-6.19,2.13,2.05-.75,4.11-1.47,6.19-2.13,15.14-4.84,31.25-7.44,47.98-7.44s32.87,2.62,48,7.46c6.92,2.19,13.62,4.85,20.09,7.95,1.93.92,3.89-1.18,2.83-3.04l-11.09-19.37-33.66-58.82c-.42-.73.11-1.63.95-1.63h7.63c38.4,0,70.67,30.41,71.2,68.81.24,17.41-5.94,33.39-16.31,45.76-.75.9-2.08,1-3,.28M126.1,62.77c.84-1.46,2.95-1.46,3.79,0l3.23,5.65,28.37,49.55c.93,1.62-.47,3.55-2.3,3.22-10.13-1.81-20.55-2.76-31.19-2.76s-21.05.95-31.17,2.76c-1.84.33-3.23-1.6-2.3-3.22l28.35-49.55,3.23-5.65ZM225.83,76.51c-15.77-15.79-37.58-25.54-61.68-25.54h-19.65c-.78,0-1.5-.42-1.89-1.1l-12.72-22.23c-.84-1.46-2.95-1.46-3.79,0l-12.72,22.23c-.39.68-1.11,1.1-1.89,1.1h-19.63c-48.18,0-87.24,39.04-87.24,87.24,0,24.1,9.77,45.91,25.56,61.68,15.79,15.79,37.6,25.56,61.68,25.56h70.75c48.35,0,89.14-39.56,88.78-87.9-.18-23.84-9.91-45.39-25.56-61.03"/>
</svg>