<?xml version="1.0" encoding="UTF-8"?>
<svg id="Layer_1" data-name="Layer 1" xmlns="http://www.w3.org/2000/svg" viewBox="0 0 257.83 359.38">
  <defs>
    <style>
      .cls-1 {
        fill: #7f01ed;
        stroke-width: 0px;
      }
    </style>
  </defs>
  <path class="cls-1" d="M257.83,221.8c-.03,3.69-2.89,5.16-6,3.81-6.55-2.86-13.04-5.87-19.7-8.45-18.2-7.08-36.94-12.18-56.22-15.37-15.9-2.63-31.89-3.98-47.99-3.9-40.18.19-78.67,8.41-115.41,24.71-2.12.94-4.22,1.93-6.33,2.9-2.21,1.02-3.97.86-5.23-.49-1.24-1.33-1.28-3.16-.09-5.25,15.24-26.64,30.49-53.28,45.73-79.91C71.63,96.12,96.65,52.4,121.67,8.68c1.06-1.86,2.16-3.7,3.19-5.57.91-1.66,1.87-3.14,4.11-3.11,2.14.03,3.05,1.47,3.96,3.06,7.88,13.8,15.78,27.6,23.68,41.39,33.31,58.21,66.63,116.41,99.93,174.62.59,1.04,1.03,2.16,1.29,2.72ZM185.55,163.15c-.26-.55-.63-1.52-1.14-2.41-10.25-17.93-20.52-35.86-30.78-53.79-7.04-12.31-14.08-24.62-21.14-36.92-1.93-3.36-5.17-3.37-7.15-.06-.28.47-.55.95-.82,1.43-7.19,12.57-14.38,25.14-21.57,37.71-9.95,17.4-19.9,34.81-29.87,52.21-.86,1.51-1.15,2.97-.06,4.45,1.05,1.41,2.4,1.82,4.19,1.5,4.14-.74,8.3-1.51,12.48-1.91,9.36-.9,18.73-1.99,28.12-2.24,11.11-.29,22.27-.21,33.35.53,10.03.67,19.98,2.44,29.97,3.74,2.33.3,4.47-1.5,4.43-4.24Z"/>
  <path class="cls-1" d="M129.16,239.81c.27,3.94.56,7.88.81,11.82.6,9.33,1.2,18.67,1.78,28,.41,6.53.77,13.06,1.18,19.59.57,9.09,1.17,18.18,1.75,27.27.4,6.28.77,12.57,1.17,18.85.22,3.48.42,6.96.69,10.43.2,2.62-.64,3.61-3.28,3.62-2.88,0-5.75,0-8.63,0-2.57,0-3.39-.73-3.26-3.23.35-6.65.78-13.3,1.19-19.95.44-7.02.91-14.03,1.36-21.04.57-8.97,1.15-17.94,1.71-26.9.42-6.77.81-13.55,1.24-20.32.59-9.38,1.2-18.76,1.79-28.14.17,0,.33.01.5.02Z"/>
  <path class="cls-1" d="M172.66,239.08c.3.56.65,1.1.89,1.68,13.48,33.15,26.96,66.3,40.42,99.46,1.13,2.78.69,3.73-2.09,4.67-2.54.86-5.09,1.69-7.64,2.54-3,1-3.83.57-4.62-2.41-2.94-11.09-5.88-22.17-8.82-33.26-6.21-23.41-12.42-46.82-18.61-70.24-.2-.74-.16-1.54-.23-2.31l.7-.13Z"/>
  <path class="cls-1" d="M85.85,239.26c-.04.67.04,1.36-.13,2-9.21,34.73-18.43,69.45-27.66,104.17-.66,2.48-1.6,2.99-4,2.2-2.78-.92-5.55-1.88-8.33-2.83-2.53-.86-2.98-1.77-1.99-4.23,7.29-17.99,14.6-35.98,21.9-53.97,6.09-14.99,12.18-29.98,18.28-44.96.35-.87.78-1.7,1.18-2.55.25.06.49.12.74.17Z"/>
</svg>