<?xml version="1.0" encoding="utf-8"?>
<!-- Generator: Adobe Illustrator 28.1.0, SVG Export Plug-In . SVG Version: 6.00 Build 0)  -->
<svg version="1.1" id="Layer_1" xmlns="http://www.w3.org/2000/svg" xmlns:xlink="http://www.w3.org/1999/xlink" x="0px" y="0px"
	 viewBox="0 0 24 24" style="enable-background:new 0 0 24 24;" xml:space="preserve">
<style type="text/css">
	.st0{opacity:0.8;fill:#FFFFFF;}
</style>
<path class="st0" d="M2.5,10.6l4.2-4.2C6.9,6.1,7.2,6,7.5,5.9s0.6-0.1,1,0l1.3,0.3C8.9,7.2,8.1,8.1,7.6,9s-1,1.9-1.5,3.1L2.5,10.6z
	 M7.6,12.8c0.4-1.2,0.9-2.3,1.6-3.4s1.5-2.1,2.4-3c1.5-1.5,3.1-2.6,5-3.3s3.6-0.9,5.3-0.7C22.2,4,22,5.8,21.3,7.7s-1.8,3.6-3.3,5
	c-0.9,0.9-1.9,1.7-3,2.4s-2.2,1.2-3.4,1.6L7.6,12.8z M14.5,9.8c0.4,0.4,0.9,0.6,1.4,0.6c0.6,0,1-0.2,1.4-0.6
	c0.4-0.4,0.6-0.9,0.6-1.4s-0.2-1-0.6-1.4s-0.9-0.6-1.4-0.6c-0.6,0-1,0.2-1.4,0.6s-0.6,0.9-0.6,1.4S14.1,9.5,14.5,9.8z M13.8,21.9
	l-1.6-3.7c1.2-0.5,2.3-1,3.2-1.5s1.8-1.2,2.9-2.1l0.2,1.3c0.1,0.3,0.1,0.7,0,1s-0.3,0.6-0.5,0.8L13.8,21.9z M4.1,16
	c0.6-0.6,1.3-0.9,2.1-0.9s1.5,0.3,2.1,0.9c0.6,0.6,0.9,1.3,0.9,2.1s-0.3,1.5-0.9,2.1c-0.4,0.4-1.1,0.8-2.1,1.1c-1,0.3-2.3,0.6-4,0.8
	c0.2-1.7,0.5-3.1,0.8-4S3.6,16.5,4.1,16z"/>
</svg>
